<svg width="123" height="111" viewBox="0 0 123 111" fill="none" xmlns="http://www.w3.org/2000/svg">
<path d="M28.0309 55.1547C28.0309 55.3175 28.0309 55.4802 28.0309 55.6226C28.0309 55.7244 28.0309 55.8058 28.0309 55.9075C28.397 73.4244 40.9034 87.9507 57.4566 91.389C58.6971 91.6535 59.9579 91.8366 61.239 91.979C62.4795 92.1011 63.7403 92.1621 65.0215 92.1621C85.4588 92.1621 102.012 75.6014 102.012 55.1547C102.012 34.7081 85.4588 18.1473 65.0215 18.1473H57.4566C58.7377 18.1473 59.9986 18.2084 61.239 18.3304C62.5202 18.4525 63.781 18.6559 65.0215 18.9204C81.5747 22.3587 94.0811 36.885 94.4471 54.402C94.4471 54.5037 94.4471 54.5851 94.4471 54.6868C94.4471 54.8495 94.4471 54.992 94.4471 55.1547C94.4471 55.3175 94.4471 55.4599 94.4471 55.6226C94.4471 55.7244 94.4471 55.8058 94.4471 55.9075C94.0404 71.8172 81.0256 84.5938 65.0215 84.5938C63.7403 84.5938 62.4795 84.5124 61.239 84.3497C46.7804 82.4983 35.5958 70.1286 35.5958 55.1547C35.5958 40.1809 46.7804 27.8112 61.239 25.9598C59.9986 25.797 58.7377 25.7156 57.4566 25.7156C41.4525 25.7156 28.4377 38.4922 28.0309 54.402C28.0309 54.5037 28.0309 54.5851 28.0309 54.6868C28.0309 54.8292 28.0309 54.992 28.0309 55.1547Z" fill="url(#paint0_linear_293_2095)"/>
<path d="M20.4658 55.1547C20.4658 75.6014 37.019 92.1621 57.4563 92.1621H65.0211C63.74 92.1621 62.4792 92.1011 61.2387 91.979C59.9575 91.8569 58.6967 91.6535 57.4563 91.389C40.5574 87.8897 28.0306 72.9158 28.0306 55.1547C28.0306 38.9195 41.0657 25.7156 57.4563 25.7156C58.7374 25.7156 59.9982 25.797 61.2387 25.9598C75.6973 27.8112 86.8819 40.1809 86.8819 55.1547C86.8819 70.1286 75.6973 82.4983 61.2387 84.3497C62.4792 84.5124 63.74 84.5938 65.0211 84.5938C81.3303 84.5938 94.4468 71.3493 94.4468 55.1547C94.4468 35.9491 79.7848 20.2225 61.2387 18.3304C59.9982 18.2084 58.7374 18.1473 57.4563 18.1473C37.019 18.1473 20.4658 34.7081 20.4658 55.1547Z" fill="url(#paint1_linear_293_2095)"/>
<path fill-rule="evenodd" clip-rule="evenodd" d="M13.1787 55.0657C13.1787 78.8716 33.012 98.0181 57.5341 98.0181H66.4423C90.9645 98.0181 110.798 78.8716 110.798 55.0657C110.798 31.2597 90.9645 12.1133 66.4423 12.1133H57.5341C33.012 12.1133 13.1787 31.2597 13.1787 55.0657ZM57.5341 96.0657C34.0293 96.0657 15.1311 77.7334 15.1311 55.0657C15.1311 32.398 34.0293 14.0657 57.5341 14.0657H66.4423C89.9472 14.0657 108.845 32.398 108.845 55.0657C108.845 77.7334 89.9472 96.0657 66.4423 96.0657H57.5341Z" fill="url(#paint2_linear_293_2095)"/>
<path fill-rule="evenodd" clip-rule="evenodd" d="M5.61298 55.5557C5.61298 83.2598 28.2807 105.585 56.364 105.585H66.6358C94.7191 105.585 117.387 83.2598 117.387 55.5557C117.387 27.8516 94.7191 5.52592 66.6358 5.52592H56.364C28.2807 5.52592 5.61298 27.8516 5.61298 55.5557ZM56.364 104.121C29.0693 104.121 7.07726 82.4311 7.07726 55.5557C7.07726 28.6803 29.0693 6.99021 56.364 6.99021H66.6358C93.9305 6.99021 115.923 28.6803 115.923 55.5557C115.923 82.4311 93.9305 104.121 66.6358 104.121H56.364Z" fill="url(#paint3_linear_293_2095)"/>
<path fill-rule="evenodd" clip-rule="evenodd" d="M0 55.5555C0 85.8264 24.9294 110.222 55.8187 110.222H67.1813C98.0706 110.222 123 85.8264 123 55.5555C123 25.2846 98.0706 0.888831 67.1813 0.888831H55.8187C24.9294 0.888831 0 25.2846 0 55.5555ZM55.8187 109.246C25.4491 109.246 0.97619 85.268 0.97619 55.5555C0.97619 25.843 25.4491 1.86502 55.8187 1.86502H67.1813C97.5509 1.86502 122.024 25.843 122.024 55.5555C122.024 85.268 97.5509 109.246 67.1813 109.246H55.8187Z" fill="url(#paint4_linear_293_2095)"/>
<defs>
<linearGradient id="paint0_linear_293_2095" x1="111.757" y1="39.1251" x2="3.68141" y2="75.5889" gradientUnits="userSpaceOnUse">
<stop offset="0.00186188" stop-color="#061022"/>
<stop offset="0.5" stop-color="#184089"/>
<stop offset="0.9972" stop-color="#4666A1"/>
</linearGradient>
<linearGradient id="paint1_linear_293_2095" x1="118.448" y1="36.9905" x2="5.69165" y2="71.1139" gradientUnits="userSpaceOnUse">
<stop offset="0.001862" stop-color="#07223B"/>
<stop offset="0.5419" stop-color="#1D8AED"/>
<stop offset="0.9972" stop-color="#77B9F4"/>
</linearGradient>
<linearGradient id="paint2_linear_293_2095" x1="17.6403" y1="101.165" x2="101.984" y2="15.9388" gradientUnits="userSpaceOnUse">
<stop stop-color="#C5EC4B"/>
<stop offset="1" stop-color="#C5EC4B" stop-opacity="0"/>
</linearGradient>
<linearGradient id="paint3_linear_293_2095" x1="10.3641" y1="109.695" x2="109.421" y2="11.4224" gradientUnits="userSpaceOnUse">
<stop stop-color="#C5EC4B"/>
<stop offset="1" stop-color="#C5EC4B" stop-opacity="0"/>
</linearGradient>
<linearGradient id="paint4_linear_293_2095" x1="4.93382" y1="115.056" x2="113.802" y2="6.34314" gradientUnits="userSpaceOnUse">
<stop stop-color="#C5EC4B"/>
<stop offset="1" stop-color="#C5EC4B" stop-opacity="0"/>
</linearGradient>
</defs>
</svg>
